<?xml version="1.0" standalone="no"?><!DOCTYPE svg PUBLIC "-//W3C//DTD SVG 1.1//EN" "http://www.w3.org/Graphics/SVG/1.1/DTD/svg11.dtd"><svg class="icon" width="200px" height="200.00px" viewBox="0 0 1024 1024" version="1.1" xmlns="http://www.w3.org/2000/svg"><path fill="#FF6666" d="M832 64a128 128 0 0 1 128 128v160a32 32 0 1 1-64 0V192a64 64 0 0 0-56.512-63.552L832 128H192a64 64 0 0 0-63.552 56.512L128 192v640a64 64 0 0 0 56.512 63.552L192 896h160a32 32 0 1 1 0 64H192a128 128 0 0 1-128-128V192a128 128 0 0 1 128-128h640z m49.792 359.744a32 32 0 0 1 32 32V636.8a32 32 0 0 1-9.344 22.592l-271.552 271.552a32 32 0 0 1-45.248 0l-180.992-180.992a32 32 0 0 1 0-45.312l271.488-271.488a32 32 0 0 1 22.656-9.408z m-32 64l-135.808 0.064-239.488 239.488 135.808 135.744 239.488-239.488V487.68zM732.8 572.8a32 32 0 1 1 0 64 32 32 0 0 1 0-64zM448 352a32 32 0 0 1 5.76 63.488L448 416H256a32 32 0 0 1-5.76-63.488L256 352h192z m192-128a32 32 0 0 1 5.76 63.488L640 288H256a32 32 0 0 1-5.76-63.488L256 224h384z" /></svg>