<?xml version="1.0" standalone="no"?><!DOCTYPE svg PUBLIC "-//W3C//DTD SVG 1.1//EN" "http://www.w3.org/Graphics/SVG/1.1/DTD/svg11.dtd"><svg t="1622688875666" class="icon" viewBox="0 0 1024 1024" version="1.1" xmlns="http://www.w3.org/2000/svg" p-id="1714" xmlns:xlink="http://www.w3.org/1999/xlink" width="200" height="200"><defs><style type="text/css"></style></defs><path d="M206.80896 247.424A126.528 126.528 0 0 1 193.68896 192c0-70.592 57.408-128 128-128s128 57.408 128 128c0 0.864-0.256 1.632-0.256 2.496 14.976-0.672 29.6-1.632 45.472-1.632 6.368 0 12.448 0.352 18.72 0.448l0.064-1.344c0-105.888-86.112-192-192-192s-192 86.112-192 192c0 31.264 7.648 60.672 20.928 86.752a432.576 432.576 0 0 1 56.192-31.296z" p-id="1715"></path><path d="M738.07296 523.456m-48 0a48 48 0 1 0 96 0 48 48 0 1 0-96 0Z" p-id="1716"></path><path d="M992.12096 672v-136.064c0-25.536 0.448-51.936-18.432-70.912-11.2-11.296-26.528-17.024-45.632-17.024h-31.392a277.024 277.024 0 0 0-85.728-109.76 307.776 307.776 0 0 1 30.464-150.88 40.64 40.64 0 0 0 4-37.6c-5.856-14.72-19.936-25.184-36.512-27.232a144.16 144.16 0 0 0-19.008-1.216c-74.912 0-168.096 48.704-206.816 139.552a933.76 933.76 0 0 0-88.192-4c-215.2 0-356.256 69.152-421.856 205.504A122.4 122.4 0 0 1 64.12096 412.128c1.024-28.832 11.264-45.984 15.744-49.376A32 32 0 0 0 41.30496 311.68c-23.84 18.016-39.616 55.616-41.152 98.176-1.76 48.64 15.072 94.016 46.272 127.04a498.752 498.752 0 0 0-12.64 70.048c-9.12 86.432 17.312 163.168 76.672 223.52l-10.176 17.632a96.128 96.128 0 0 0 35.136 131.136l55.424 32a96.448 96.448 0 0 0 131.232-35.168l17.888-30.944c88.576 18.848 192.608 21.6 282.56 4l15.552 26.976A96.384 96.384 0 0 0 721.36896 1024c16.768 0 33.312-4.416 47.84-12.8l55.424-32a96.128 96.128 0 0 0 35.136-131.136l-10.336-17.92c16.8-18.88 31.104-39.68 42.688-62.144h35.936c19.104 0 34.432-5.728 45.632-17.024 18.88-18.976 18.432-45.376 18.432-70.912V672z m-64-136.576v145.152c0 7.264 0.192 17.376-0.576 23.424h-76.672l-8.352 19.328a239.2 239.2 0 0 1-54.944 78.816l-18.176 17.344 34.944 60.576c8.8 15.296 3.584 34.88-11.68 43.712l-55.424 32c-14.816 8.544-35.296 2.976-43.712-11.712l-39.2-67.904-23.264 5.568a578.24 578.24 0 0 1-134.56 15.136c-58.4 0-113.792-6.496-164.608-19.328l-23.456-5.92-41.824 72.448c-8.384 14.592-28.96 20.224-43.712 11.712l-55.424-32a32 32 0 0 1-11.68-43.712l36.128-62.592-20.128-17.312c-57.184-49.152-82.176-111.936-74.304-186.528 21.184-199.744 147.456-292.768 397.44-292.768 37.632 0 73.184 2.144 105.696 6.368l27.328 3.552 7.552-26.464c20.832-72.768 86.88-110.048 136.384-117.568a372.8 372.8 0 0 0-23.52 171.808l1.472 14.816 12.288 8.416c39.2 26.88 66.24 62.496 82.72 108.896l7.488 21.312h75.232c0.736 6.048 0.544 16.192 0.544 23.424z" p-id="1717"></path></svg>