<?xml version="1.0" standalone="no"?><!DOCTYPE svg PUBLIC "-//W3C//DTD SVG 1.1//EN" "http://www.w3.org/Graphics/SVG/1.1/DTD/svg11.dtd"><svg t="1622689100266" class="icon" viewBox="0 0 1024 1024" version="1.1" xmlns="http://www.w3.org/2000/svg" p-id="4830" xmlns:xlink="http://www.w3.org/1999/xlink" width="200" height="200"><defs><style type="text/css"></style></defs><path d="M698.181818 442.181818a279.272727 279.272727 0 1 0 0 558.545455 279.272727 279.272727 0 0 0 0-558.545455z m0 465.454546a186.181818 186.181818 0 1 1 0-372.363637 186.181818 186.181818 0 0 1 0 372.363637zM605.090909 256a232.727273 232.727273 0 1 0-465.454545 0 232.727273 232.727273 0 0 0 465.454545 0z m-232.727273 139.636364a139.636364 139.636364 0 1 1 0-279.272728 139.636364 139.636364 0 0 1 0 279.272728zM209.454545 535.272727a162.909091 162.909091 0 1 0 0 325.818182 162.909091 162.909091 0 0 0 0-325.818182z m0 232.727273a69.818182 69.818182 0 1 1 0-139.636364 69.818182 69.818182 0 0 1 0 139.636364z" p-id="4831"></path></svg>