<?xml version="1.0" standalone="no"?><!DOCTYPE svg PUBLIC "-//W3C//DTD SVG 1.1//EN" "http://www.w3.org/Graphics/SVG/1.1/DTD/svg11.dtd"><svg class="icon" width="200px" height="199.80px" viewBox="0 0 1025 1024" version="1.1" xmlns="http://www.w3.org/2000/svg"><path fill="#99CC99" d="M120.249363 903.185745 120.246293 63.710007 64.284109 63.710007 64.284109 959.149976 959.721008 959.149976 959.721008 903.185745ZM210.338399 820.532409l21.840449 10.696109L428.055189 639.350425l251.842619 0 0-0.007163 95.687813-254.418404 128.17218-19.690379 0-54.820119-106.700139 17.420577 78.717512-209.29867-55.967301 0-87.270715 219.833089L400.073586 392.649143l-223.858969 411.17085 27.982627 27.408525L210.338399 820.532409zM429.984214 438.017553l280.073921-43.02595-75.243221 189.535633L484.020443 584.527236 400.073586 584.527236 276.147307 705.925827 429.984214 438.017553z" /></svg>